<?xml version="1.0" encoding="UTF-8"?>
<svg id="Layer_1" data-name="Layer 1" xmlns="http://www.w3.org/2000/svg" viewBox="0 0 612 385.6">
  <defs>
    <style>
      .cls-1 {
        fill: #204180;
      }

      .cls-1, .cls-2 {
        stroke-width: 0px;
      }

      .cls-2 {
        fill: #99c03c;
      }
    </style>
  </defs>
  <g id="Ingenieria_original" data-name="Ingenieria original">
    <circle class="cls-1" cx="149.2" cy="248.47" r="28.4"/>
    <g>
      <circle class="cls-1" cx="306" cy="72.37" r="28.4"/>
      <path class="cls-1" d="M372.08,51.37c1.9-4.84,6.57-8.03,11.77-8.03h18.9c6.81,0,11.49,6.86,9,13.2l-79.61,202.96c-9.42,24.01-43.39,24.01-52.8,0L200.32,58.03c-2.77-7.06,2.44-14.69,10.02-14.69h17.3c5.2,0,9.87,3.19,11.77,8.03l62.44,159.2c1.39,3.54,6.4,3.54,7.78,0l62.44-159.2Z"/>
    </g>
    <circle class="cls-1" cx="462.8" cy="248.47" r="28.4"/>
    <g>
      <g>
        <rect class="cls-2" x="47.31" y="296.63" width="14.06" height="50.52"/>
        <rect class="cls-2" x="484.27" y="296.63" width="14.06" height="50.52"/>
        <path class="cls-2" d="M474.04,344.22l-7.28-7.53h.17c3.43,0,6.21-2.78,6.21-6.21v-7.85h-.01v-11.96h.01v-7.85c0-3.43-2.78-6.21-6.21-6.21h-44.31v.02h-2.31v50.52h14.06v-10.46h15.45l10.13,10.45h14.09l-.08-.09.09.06v-2.89ZM459.01,322.63h-24.65v-11.96h24.65v11.96Z"/>
        <polygon class="cls-2" points="205.21 296.63 200.4 296.63 200.4 347.15 205.21 347.15 205.21 347.16 255.73 347.16 255.73 333.1 214.46 333.1 214.46 329.06 255.73 329.06 255.73 315 214.46 315 214.46 310.66 255.73 310.66 255.73 296.6 205.21 296.6 205.21 296.63"/>
        <polygon class="cls-2" points="359.47 296.63 354.66 296.63 354.66 347.15 359.47 347.15 359.47 347.16 409.99 347.16 409.99 333.1 368.72 333.1 368.72 329.06 409.99 329.06 409.99 315 368.72 315 368.72 310.66 409.99 310.66 409.99 296.6 359.47 296.6 359.47 296.63"/>
        <rect class="cls-2" x="330.39" y="296.63" width="14.06" height="50.52"/>
        <path class="cls-2" d="M185.18,296.68h-35.65v-.05h-9.11c-2.73,0-4.95,2.22-4.95,4.95v40.62c0,2.73,2.22,4.95,4.95,4.95h9.11s35.65-.01,35.65-.01c2.73,0,4.95-2.22,4.95-4.95v-9.11h0v-18.09h-14.79v.02h-13.84v14.06h13.84v4.02h-25.81v-22.34h25.87v1.63h14.73v-1.63h0v-9.11c0-2.73-2.22-4.95-4.95-4.95Z"/>
        <path class="cls-2" d="M559.74,296.63h-2.46c-.11,0-.22-.02-.33-.02h-37.94c-.11,0-.22.01-.33.02h-4.86c-2.73,0-4.95,2.22-4.95,4.95v45.57h14.06v-10.46h27.71v10.46h14.06v-45.57c0-2.73-2.22-4.95-4.95-4.95ZM522.92,322.63v-11.96h27.71v11.96h-27.71Z"/>
        <polygon class="cls-2" points="111.18 326.84 87.02 296.64 87.03 296.63 87.01 296.63 87 296.61 86.99 296.63 81.36 296.63 81.36 296.63 71.24 296.63 71.24 347.15 85.29 347.15 85.29 316.79 109.58 347.15 111.18 347.15 111.18 347.15 125.24 347.15 125.24 296.63 111.18 296.63 111.18 326.84"/>
        <polygon class="cls-2" points="306.09 326.84 281.94 296.64 281.95 296.63 281.93 296.63 281.92 296.61 281.9 296.63 276.27 296.63 276.27 296.63 266.15 296.63 266.15 347.15 280.21 347.15 280.21 316.79 304.49 347.15 306.09 347.15 306.09 347.15 320.15 347.15 320.15 296.63 306.09 296.63 306.09 326.84"/>
      </g>
      <path class="cls-1" d="M215.28,269.47c1.9,4.84,6.57,8.03,11.77,8.03h18.9c6.81,0,11.49-6.86,9-13.2L175.35,61.34c-9.42-24.01-43.39-24.01-52.8,0l-79.02,201.46c-2.77,7.06,2.44,14.69,10.02,14.69h17.3c5.2,0,9.87-3.19,11.77-8.03l62.44-159.2c1.39-3.54,6.4-3.54,7.78,0l62.44,159.2Z"/>
      <path class="cls-1" d="M528.88,269.47c1.9,4.84,6.57,8.03,11.77,8.03h18.9c6.81,0,11.49-6.86,9-13.2l-79.61-202.96c-9.42-24.01-43.39-24.01-52.8,0l-79.02,201.46c-2.77,7.06,2.44,14.69,10.02,14.69h17.3c5.2,0,9.87-3.19,11.77-8.03l62.44-159.2c1.39-3.54,6.4-3.54,7.78,0l62.44,159.2Z"/>
    </g>
  </g>
</svg>